<?xml version="1.0" standalone="no"?>
<!DOCTYPE svg PUBLIC "-//W3C//DTD SVG 20010904//EN"
 "http://www.w3.org/TR/2001/REC-SVG-20010904/DTD/svg10.dtd">
<svg version="1.0" xmlns="http://www.w3.org/2000/svg"
 width="500.000000pt" height="500.000000pt" viewBox="0 0 500.000000 500.000000"
 preserveAspectRatio="xMidYMid meet">
<metadata>
Created by potrace 1.14, written by Peter Selinger 2001-2017
</metadata>
<g transform="translate(0.000000,500.000000) scale(0.100000,-0.100000)"
fill="#000000" stroke="none">
<path d="M1196 3389 c-43 -10 -92 -38 -117 -66 -9 -10 -37 -38 -62 -61 -25
-24 -53 -59 -62 -78 -16 -34 -66 -73 -145 -113 -49 -25 -100 -69 -100 -85 1
-20 70 -86 113 -109 35 -18 58 -22 142 -22 55 0 125 4 155 8 30 4 61 4 68 -1
7 -5 14 -38 17 -78 11 -152 58 -356 95 -409 4 -5 17 -37 29 -70 12 -33 30 -71
38 -85 26 -40 23 -113 -6 -144 -14 -14 -30 -26 -37 -26 -6 0 -17 -12 -23 -27
-6 -16 -39 -57 -72 -93 -34 -36 -76 -88 -95 -116 -54 -84 -150 -157 -267 -205
-69 -27 -84 -48 -67 -90 10 -23 23 -32 63 -44 76 -22 125 -18 177 15 25 16 71
43 103 60 l59 31 49 -17 c48 -18 50 -18 96 5 53 26 169 124 178 150 3 11 28
24 65 35 68 21 117 59 174 139 22 30 48 60 59 67 12 7 57 15 102 18 l81 5 12
-39 c6 -22 17 -75 25 -119 18 -100 36 -142 78 -181 50 -45 285 -174 318 -174
7 0 21 -10 31 -22 17 -21 27 -23 152 -26 118 -3 139 -1 182 17 48 21 129 93
200 180 l37 44 -6 124 c-5 109 -3 129 14 168 27 62 69 112 118 140 l41 25 44
-20 c24 -10 59 -28 78 -38 115 -64 249 -118 420 -168 69 -21 150 -50 180 -67
125 -66 179 -98 190 -112 7 -8 16 -12 21 -9 5 3 9 -1 9 -9 0 -14 82 -47 204
-82 53 -15 60 -15 74 -1 13 13 13 22 4 54 -18 58 -48 92 -82 92 -16 0 -35 7
-44 15 -8 8 -20 15 -26 15 -6 0 -9 4 -5 9 9 16 -51 104 -86 126 -17 11 -43 28
-58 37 -56 37 -107 62 -130 65 -44 4 -54 24 -42 84 16 79 17 306 1 354 -41
126 -195 259 -392 339 -35 14 -38 18 -38 54 0 21 -6 45 -12 54 -16 19 -171 58
-231 58 -24 0 -68 4 -98 9 -30 5 -126 14 -214 21 -88 6 -196 16 -240 21 -44 6
-147 14 -230 19 -385 25 -472 35 -500 60 -38 34 -315 165 -420 199 -38 12 -86
32 -108 44 -22 12 -54 30 -71 39 -35 19 -143 22 -210 7z m1521 -1376 c62 -59
79 -126 62 -243 -6 -47 -12 -95 -13 -107 0 -13 -5 -23 -11 -23 -5 0 -39 -23
-74 -50 -35 -28 -74 -50 -86 -50 -12 0 -35 -2 -51 -5 -24 -4 -38 3 -81 43 -73
68 -113 120 -113 150 0 13 21 68 48 122 l47 97 55 17 c30 9 84 30 120 46 36
16 66 30 66 30 1 0 15 -12 31 -27z"/>
</g>
</svg>
